<svg width="46" height="59" viewBox="0 0 46 59" fill="none" xmlns="http://www.w3.org/2000/svg">
<path d="M14.7344 48.2612H30.4837" stroke="white" stroke-width="4" stroke-miterlimit="10"/>
<path d="M22.8789 29.7349L22.7344 42.7349" stroke="white" stroke-width="4" stroke-miterlimit="10"/>
<path d="M43.0325 21.739C42.967 20.2095 42.7811 16.8046 40.793 13.0174C40.3345 12.1434 38.7958 9.37427 35.7565 6.88584C30.6804 2.72835 24.9218 2.22005 22.5985 2.15177V2.14722C22.5772 2.14722 22.5528 2.14722 22.5315 2.14873C22.5102 2.14873 22.4858 2.14873 22.4645 2.14722V2.15177C20.1412 2.22005 14.3826 2.72987 9.30652 6.88584C6.26725 9.37427 4.72858 12.1434 4.27002 13.0174C2.28193 16.8046 2.09759 20.2095 2.03056 21.739C1.97267 23.0818 1.87822 25.8601 3.01013 29.183C4.08416 32.3376 5.74471 34.4603 6.64811 35.5938C8.44577 37.85 8.77331 37.4237 10.7066 39.9136C13.1959 43.1197 13.6438 45.1044 13.7854 46.1847C13.8936 47.0162 13.8433 47.4866 13.7854 48.6989C13.6956 50.5789 13.6346 53.2661 13.7854 56.6361H31.2806C31.4315 53.2661 31.3705 50.5789 31.2806 48.6989C31.2228 47.4866 31.1725 47.0162 31.2806 46.1847C31.4223 45.1044 31.8702 43.1197 34.3595 39.9136C36.2928 37.4237 36.6203 37.85 38.418 35.5938C39.3214 34.4603 40.9819 32.3376 42.0559 29.183C43.1879 25.8601 43.0934 23.0818 43.0355 21.739H43.0325Z" stroke="white" stroke-width="4" stroke-miterlimit="10"/>
</svg>
